<mxfile host="app.diagrams.net" modified="2024-05-18T22:25:56.499Z" agent="Mozilla/5.0 (Windows NT 10.0; Win64; x64; rv:127.0) Gecko/20100101 Firefox/127.0" version="23.1.1" etag="YMZK3NG1QKI5o6fUw4pv" type="github">
  <diagram name="Page-1" id="20jnVWrvJ8IohUEtbr5V">
    <mxGraphModel>
      <root>
        <mxCell id="0" />
        <mxCell id="1" parent="0" />
      </root>
    </mxGraphModel>
  </diagram>
</mxfile>
